<?xml version="1.0" encoding="UTF-8"?>
<svg id="Calque_2" data-name="Calque 2" xmlns="http://www.w3.org/2000/svg" viewBox="0 0 17.16 17.16">
  <defs>
    <style>
      .cls-1 {
        stroke-width: .29px;
      }

      .cls-1, .cls-2 {
        fill: none;
        stroke: #c95e33;
        stroke-miterlimit: 10;
      }

      .cls-3 {
        fill: #fff;
      }

      .cls-4 {
        fill: #c95e33;
      }

      .cls-2 {
        stroke-width: .59px;
      }
    </style>
  </defs>
  <g id="Maquette">
    <g>
      <circle class="cls-3" cx="8.58" cy="8.58" r="8.58"/>
      <g>
        <rect class="cls-1" x="3.82" y="3.76" width="9.52" height="9.64" rx="1.3" ry="1.3"/>
        <circle class="cls-2" cx="8.63" cy="8.75" r="2.23"/>
        <circle class="cls-1" cx="11.82" cy="5.48" r="1.02"/>
        <path class="cls-1" d="m6.58,7.82l-2.76.04,2.76-.04Z"/>
        <path class="cls-1" d="m10.72,7.88l2.62.02-2.62-.02Z"/>
        <path class="cls-4" d="m6.63,5.99s0-.04,0-.05l-.03.19c0-.06.03-.11.05-.17l-.07.17c.03-.07.07-.13.11-.19l-.11.15s.06-.07.09-.1l-.15.11s.04-.03.07-.04l-.17.07s.03-.01.05-.01l-.19.03s.02,0,.03,0l-.19-.03s.02,0,.03,0l-.17-.07s.03.02.05.03l-.15-.11s.02.02.03.03l-.11-.15s.04.05.05.08l-.07-.17s.02.06.03.1l-.03-.19s0,.07,0,.1l.03-.19s-.02.08-.03.12l.07-.17c-.02.05-.05.1-.09.15l.11-.15s-.08.09-.13.12l.15-.11c-.05.04-.11.07-.16.1l.17-.07s-.07.02-.11.03l.19-.03s-.06,0-.09,0l.19.03s-.05,0-.07-.02l.17.07s-.04-.02-.06-.04l.15.11s-.04-.03-.05-.06l.11.15s-.03-.05-.04-.08l.07.17s-.03-.08-.03-.13l.03.19c0-.08,0-.16,0-.24l-.03.19c.01-.07.03-.14.06-.21l-.07.17s.04-.09.07-.14l-.11.15s.04-.05.07-.07l-.15.11s.05-.04.09-.05l-.17.07s.03-.01.05-.01l-.19.03s.03,0,.05,0l-.19-.03s.03,0,.04.01l-.17-.07h.02s-.1-.07-.15-.1c.01,0,.02.02.03.03l-.11-.15s.03.04.04.06l-.07-.17s.02.07.03.11l-.03-.19s0,.1,0,.15l.03-.19s-.02.09-.04.14l.07-.17c-.03.07-.07.13-.12.2l.11-.15c-.06.08-.13.15-.21.21l.15-.11c-.05.04-.11.07-.17.1l.17-.07s-.06.02-.09.03l.19-.03s-.08,0-.12,0l.19.03s-.02,0-.03,0l.17.07s-.02,0-.03-.01l.15.11s-.01-.01-.02-.02l.11.15s-.01-.02-.02-.03l.07.17c-.03-.09-.05-.19-.06-.28l.03.19c-.03-.21-.02-.42,0-.63l-.03.19c.02-.12.04-.24.09-.36l-.07.17s.05-.09.08-.13l-.11.15s.03-.04.05-.05l-.15.11s.04-.03.06-.04l-.17.07s.04-.01.06-.02l-.19.03s.05,0,.08,0l-.19-.03s.06.01.09.02l-.17-.07c.06.02.1.06.15.09l-.15-.11s.09.08.13.13l-.11-.15s.05.07.07.12l-.07-.17s.03.08.03.12l-.03-.19s0,.08,0,.12l.03-.19s-.02.09-.04.14l.07-.17s-.05.09-.08.12l.11-.15s-.07.07-.11.11l.15-.11c-.05.04-.1.07-.16.09l.17-.07c-.06.02-.12.04-.19.05l.19-.03c-.06,0-.12,0-.19,0l.19.03c-.06,0-.11-.03-.17-.05l.17.07c-.08-.04-.16-.08-.23-.14l.15.11c-.09-.07-.17-.15-.24-.24l.11.15c-.05-.07-.09-.14-.13-.21l.07.17c-.02-.06-.04-.11-.05-.17l.03.19s0-.08,0-.13l-.03.19s.01-.07.03-.1l-.07.17s.03-.05.04-.07l-.11.15s.05-.06.08-.08l-.15.11s.09-.06.15-.09l-.17.07c.07-.03.14-.04.21-.05l-.19.03c.32-.03.66-.01.98,0,.36,0,.72,0,1.08,0,.38,0,.75-.33.73-.73s-.32-.74-.73-.73c-.43.01-.87,0-1.3,0-.47,0-.96-.04-1.39.19-.47.25-.67.76-.58,1.27.06.33.27.65.51.87.3.27.65.46,1.05.48.49.03.95-.24,1.23-.63s.28-.91.04-1.3c-.22-.36-.67-.68-1.11-.65-.82.05-1.06.88-1.09,1.57-.01.24.02.48.06.71.05.26.18.5.41.64s.55.16.8.08c.4-.12.78-.47.96-.85.13-.28.17-.55.12-.86-.06-.33-.32-.64-.64-.73-.61-.16-1.12.29-1.28.85-.13.44-.08.96.24,1.31.34.37.87.37,1.3.16.33-.17.6-.49.7-.85.15-.52-.12-1.16-.67-1.3-.5-.13-.97.21-1.18.64-.09.19-.17.4-.17.62,0,.38.33.75.73.73s.74-.32.73-.73h0Z"/>
        <path class="cls-4" d="m3.81,5.23c0,.32,0,.64-.02.95,0,.16-.02.31-.03.47-.01.14,0,.28-.03.43l.03-.19s-.02.08-.03.12c-.11.37.14.81.51.9.4.09.78-.12.9-.51.06-.19.06-.4.07-.6,0-.17.02-.34.03-.51.02-.35.03-.7.03-1.05,0-.38-.33-.75-.73-.73s-.74.32-.73.73h0Z"/>
        <path class="cls-4" d="m5.12,7.74c.17,0,.34,0,.5-.01.08,0,.15,0,.23,0s.28.01.03-.03l-.44-.34c-.08-.19-.07-.17.02.05.04.06.08.12.14.17.15.14.34.22.55.21.26,0,.51-.15.68-.33.12-.13.18-.26.24-.42l.02-.06c.03-.08.03-.08,0,0,.05-.07.05-.07,0,0,.03-.03.06-.06.09-.09.06-.05.07-.06,0,0,.03-.03.07-.05.11-.08.14-.1.3-.2.46-.27-.14.06.07-.01.08-.02.08-.02.09-.02,0,0,.05,0,.09,0,.14,0,.41-.01.8-.05,1.21-.03.38.02.75-.35.73-.73-.02-.41-.32-.71-.73-.73-.36-.02-.71.02-1.07.03-.42,0-.79.08-1.17.26-.3.15-.62.36-.85.6-.17.17-.29.36-.38.58-.02.05-.11.17-.01.05.03-.06.08-.1.14-.14-.02.02-.05.03-.08.04l.37-.1h-.03c.17.07.34.14.52.21l-.02-.02.19.32c-.16-.78-1.11-.56-1.68-.56-.38,0-.75.34-.73.73s.32.73.73.73h0Z"/>
        <path class="cls-4" d="m7.34,5.96c.63,0,1.25-.11,1.88-.11.38,0,.75-.34.73-.73s-.32-.73-.73-.73c-.63,0-1.25.11-1.88.11-.38,0-.75.33-.73.73s.32.73.73.73h0Z"/>
        <path class="cls-4" d="m7.26,5.15c.21.01.43.04.64.06s.42.02.63.02.4,0,.6,0c.18,0,.37-.02.55,0l-.19-.03s.08.01.12.02c.37.1.81-.12.9-.51s-.11-.8-.51-.9c-.44-.11-.92-.05-1.37-.05-.23,0-.45,0-.68-.02s-.46-.06-.69-.07c-.38-.02-.75.35-.73.73.02.41.32.71.73.73h0Z"/>
        <path class="cls-4" d="m10.84,7.8c.37.04.75,0,1.13.02s.75.04,1.13.04c.19,0,.37-.17.37-.37s-.16-.37-.37-.37c-.38,0-.75-.03-1.13-.04s-.76.02-1.13-.02c-.19-.02-.37.18-.37.37,0,.22.16.34.37.37h0Z"/>
        <path class="cls-4" d="m9.55,6.47s.05.02.07.03l-.09-.04c.07.03.13.06.19.1.01,0,.03.02.04.03.01,0,.02.02.03.02l-.04-.03s.06.05.09.08c.05.05.11.1.16.16.03.03.05.06.08.09,0,.01.05.06,0,0s0,0,.01.01c.19.26.37.71.75.71.19,0,.37-.17.37-.37s-.16-.36-.37-.37h-.01s.06,0,.1.01c0,0-.01,0-.02,0l.09.04s-.02-.01-.03-.02c.07.04.06.05.03.02-.02-.02-.04-.04-.06-.06-.01-.02-.03-.04-.04-.05.07.08.02.03,0,0-.01-.02-.02-.03-.03-.05-.09-.15-.18-.29-.3-.42-.22-.26-.5-.49-.83-.6-.18-.06-.41.07-.45.26-.05.2.06.38.26.45h0Z"/>
        <path class="cls-4" d="m9.77,5.05c0,.17,0,.35.01.52.01.11.02.22.05.32.02.08.05.15.07.23.05.18.26.32.45.26s.31-.25.26-.45c-.03-.12-.09-.24-.11-.37v.1c-.01-.2-.01-.4-.01-.61,0-.19-.17-.37-.37-.37s-.37.16-.37.37h0Z"/>
        <path class="cls-4" d="m10.25,4.62c-.19.45-.25.95-.19,1.43s.29.93.75,1.14c.14.06.28.07.41-.03.11-.09.17-.24.13-.38-.02-.06-.04-.11-.07-.16-.09-.17-.34-.23-.5-.13-.17.11-.23.32-.13.5-.02-.05-.02-.05,0-.01l.54-.41s-.07-.03-.11-.06c-.02-.01-.04-.03-.06-.04-.04-.03.04.04,0,0-.03-.03-.06-.05-.08-.08-.01-.02-.04-.07,0,0,0-.02-.02-.03-.03-.05-.02-.03-.04-.07-.05-.1-.02-.04,0-.02,0,0,0-.02-.02-.05-.02-.07-.01-.04-.02-.08-.03-.11,0,0-.01-.07,0-.03,0,.05,0-.05,0-.05-.02-.18-.02-.37,0-.56,0-.03,0-.06,0-.09,0,.04,0,.03,0,0,0-.04.02-.09.03-.13.01-.05.02-.1.04-.14,0-.02.01-.04.02-.06,0-.01.03-.08,0-.02.07-.18.06-.4-.13-.5-.16-.08-.42-.06-.5.13h0Z"/>
        <path class="cls-4" d="m10.28,6.41c.06.12.15.21.24.31.08.09.15.18.24.27.2.19.43.29.69.38s.51.16.78.15c.25,0,.52-.02.76-.1.18-.06.32-.26.26-.45s-.25-.32-.45-.26c-.05.01-.09.03-.14.04-.04,0-.05,0-.02,0-.03,0-.05,0-.08,0-.1,0-.2.02-.31.02-.19,0-.37-.05-.57-.12-.05-.02-.1-.03-.14-.05-.02,0-.05-.02-.07-.03.03.01.03,0-.01,0-.09-.05-.12-.06-.18-.12-.08-.07-.14-.16-.21-.24-.03-.04-.07-.08-.1-.11-.03-.03-.03-.04-.01-.02-.01-.02-.03-.04-.04-.06-.09-.17-.34-.23-.5-.13-.18.11-.22.32-.13.5h0Z"/>
        <path class="cls-4" d="m11.08,7.22s.09,0,.14.01c-.04,0-.02,0,0,0,.02,0,.05,0,.07.01.12.02.24.04.35.05.19.02.38.03.57,0s.37-.06.55-.11c.11-.03.2-.08.29-.15s.15-.16.2-.26c.09-.17.05-.4-.13-.5-.17-.09-.41-.05-.5.13,0,.02-.03.09-.05.1.02,0,.1-.09.03-.03-.02.01-.01,0,.03,0-.02,0-.03.01-.05.02-.03.01-.07.02-.1.03-.07.02-.14.03-.21.05-.03,0-.07.01-.1.02.08-.01-.06,0-.08,0-.08,0-.16,0-.24,0-.05,0-.09,0-.14-.01-.08,0,.05,0-.04,0-.19-.03-.38-.06-.58-.08s-.37.18-.37.37c0,.21.16.35.37.37h0Z"/>
        <path class="cls-4" d="m12.47,7.13c.12-.04.24-.09.35-.16.07-.04.13-.09.18-.14s.1-.12.15-.18l-.06.07s.03-.04.05-.06c.07-.06.11-.17.11-.26,0-.05,0-.1-.03-.14-.01-.05-.04-.08-.08-.12-.07-.06-.16-.11-.26-.11s-.19.04-.26.11c-.06.06-.1.13-.15.19l.06-.07s-.05.06-.09.09l.07-.06c-.07.05-.14.09-.22.12l.09-.04s-.07.03-.11.04c-.09.03-.17.08-.22.17-.03.04-.04.09-.04.14-.01.05,0,.1,0,.15.03.09.08.17.17.22s.19.07.28.04h0Z"/>
        <path class="cls-4" d="m10.15,4.14c.37.06.74.05,1.12.04.18,0,.36,0,.54,0,.16,0,.35-.04.51,0l.05-.36c-.39-.04-.77-.05-1.16,0-.19.03-.38.06-.55.13-.16.07-.3.17-.46.24s-.1.29.04.33c.12.04.28-.04.4-.06s.24-.03.37-.05c.11-.02.21-.04.33-.03l-.13-.31c-.08.09-.21.12-.32.16-.16.07-.31.14-.46.23-.16.1-.09.33.09.34s.34-.06.51-.12c.18-.07.37-.11.54-.21.21-.12.03-.41-.18-.32-.26.12-.46.33-.73.42l.18.31c.38-.36.92-.47,1.42-.38l.1-.35c-.18-.03-.35-.07-.53-.11v.35c.26-.06.6.06.77.26l.08-.31s0,0,0,0c-.02,0-.05-.01-.07-.02-.02,0-.03-.01-.05-.02-.01,0-.02-.01-.03-.02-.06-.04-.05.02.01.17.02,0,.04-.02.05-.03.02,0,.03-.02.05-.02h-.06s.08.12.09.13c.06.08.16.12.25.07.08-.04.12-.17.07-.25-.1-.13-.16-.3-.34-.31-.14-.01-.34.1-.41.22-.17.3.32.51.56.44.14-.04.17-.2.08-.31-.25-.3-.75-.44-1.13-.35-.17.04-.18.32,0,.35s.35.08.53.11c.1.01.2-.02.22-.13.03-.09-.03-.21-.13-.22-.63-.12-1.3.02-1.78.47-.13.12,0,.37.18.31.3-.11.53-.33.82-.46l-.18-.32c-.14.08-.3.11-.45.17-.13.05-.27.12-.41.11l.09.34c.15-.09.31-.17.47-.24.14-.06.28-.1.38-.21.11-.12.03-.3-.13-.31-.21-.02-.44.05-.64.08-.09.01-.17.03-.25.04-.03,0-.06.01-.08.02-.02,0-.03,0-.05.01-.04,0-.03,0,.04,0l.04.33c.14-.07.27-.16.42-.22.15-.07.33-.09.5-.11.35-.04.71-.03,1.06.01.2.02.25-.32.05-.36-.16-.03-.32-.01-.48,0-.19,0-.38,0-.57,0-.37,0-.75.04-1.12-.03-.23-.04-.33.31-.1.35h0Z"/>
        <path class="cls-4" d="m12.43,4.27c.1.03.16.15.21.24.06.12.07.25.11.38.06.2.35.16.36-.05,0-.18-.06-.45-.28-.44-.15,0-.26.15-.23.29.02.11.1.2.19.27.08.06.2,0,.25-.07.04-.05.05-.12.06-.18,0-.03,0-.11.02-.12l-.29-.04c.13.18.08.46.04.66-.06.34-.07.69-.14,1.03-.04.21.21.31.33.14.08-.12.15-.24.2-.38.05-.12.07-.25.12-.38l-.36-.05c0,.21-.05.42-.06.63-.02.23.35.23.37,0,.02-.21.06-.42.06-.63s-.3-.24-.36-.05c-.04.11-.06.23-.1.34s-.11.22-.18.33l.33.14c.08-.36.1-.74.16-1.11.04-.28.08-.62-.09-.86-.07-.09-.2-.13-.29-.04-.06.06-.09.12-.1.2-.01.06,0,.13-.04.17l.25-.07s0,0,0,0c0-.02,0-.03,0-.01l-.02.09c-.12.06-.19.05-.21-.02,0-.01,0,0,0,.01,0,.02.01.04.01.06,0-.02,0,.05,0,.07l.36-.05c-.03-.09-.04-.18-.07-.27s-.07-.17-.11-.24c-.09-.16-.22-.29-.39-.35-.22-.08-.32.27-.1.35h0Z"/>
        <path class="cls-4" d="m12.76,5.08s.01.05.02.07c0,.02.02.04.03.06.01.02.03.04.05.05.02.01.04.02.07.02.02,0,.05,0,.07,0,.04-.01.09-.04.11-.08l.02-.04s0-.06,0-.1c0-.02-.02-.05-.02-.07,0-.02-.02-.04-.03-.06-.01-.02-.03-.04-.05-.05-.02-.01-.04-.02-.07-.02-.02,0-.05,0-.07,0-.04.01-.09.04-.11.08s-.03.09-.02.14h0Z"/>
      </g>
    </g>
  </g>
</svg>