<?xml version="1.0" encoding="UTF-8"?>
<svg id="Calque_2" data-name="Calque 2" xmlns="http://www.w3.org/2000/svg" viewBox="0 0 204.52 41.26">
  <defs>
    <style>
      .cls-1 {
        fill: #eae353;
      }

      .cls-2 {
        fill: #fff;
      }
    </style>
  </defs>
  <g id="Calque_1-2" data-name="Calque 1">
    <g>
      <path class="cls-2" d="m0,15.55h5.3c.41,1.94,1.81,3.27,4.28,3.27,2.22,0,3.65-.98,3.65-2.57,0-1.14-.73-1.87-2.38-2.19l-4.63-.92C2.54,12.41.48,10.6.48,6.92.48,2.92,4.06,0,9.14,0s8.54,2.7,8.76,7.14h-5.24c-.29-1.65-1.46-2.86-3.55-2.86s-3.33.76-3.33,2.22c0,1.05.63,1.52,1.97,1.78l5.05.95c3.75.7,5.74,2.82,5.74,6.32,0,4.48-3.78,7.55-9.01,7.55S.48,20.15,0,15.55Z"/>
      <path class="cls-2" d="m27.01,5.17h-6.79V.44h19.04v4.73h-6.79v17.49h-5.46V5.17Z"/>
      <path class="cls-2" d="m42.4.44h11.27c5.3,0,8.51,2.98,8.51,7.14,0,3.21-1.94,5.68-5.11,6.67l4.13,8.41h-6.28l-3.84-7.9h-3.21v7.9h-5.46V.44Zm10.95,9.84c2.09,0,3.36-1.08,3.36-2.73,0-1.52-1.27-2.63-3.36-2.63h-5.49v5.36h5.49Z"/>
      <path class="cls-2" d="m65.67.44h16.92v4.73h-11.46v3.84h11.04v4.73h-11.04v4.19h11.71v4.73h-17.17V.44Z"/>
      <path class="cls-2" d="m86.61.44h16.92v4.73h-11.46v3.84h11.04v4.73h-11.04v4.19h11.71v4.73h-17.17V.44Z"/>
      <path class="cls-2" d="m113.24,5.17h-6.79V.44h19.04v4.73h-6.79v17.49h-5.46V5.17Z"/>
      <path class="cls-2" d="m135.01,14.89v-1.94h5.36v1.78c0,2,.89,3.59,2.98,3.59,1.97,0,2.98-1.27,2.98-3.21V.44h5.46v15.11c0,4.25-3.36,7.55-8.38,7.55-5.55,0-8.41-3.71-8.41-8.22Z"/>
      <path class="cls-2" d="m162.43.44h5.78l8.63,22.22h-5.71l-1.52-4.41h-8.57l-1.52,4.41h-5.71L162.43.44Zm5.52,13.08l-2.63-7.65-2.63,7.65h5.27Z"/>
      <path class="cls-2" d="m179.57.44h6.79l5.68,14.92,5.68-14.92h6.79v22.22h-5.11V7.97l-5.36,14.69h-4l-5.36-14.69v14.69h-5.11V.44Z"/>
    </g>
    <g>
      <path class="cls-1" d="m.86,28.19h8.88v1.78H2.88v3.79h6.63v1.78H2.88v5.47H.86v-12.82Z"/>
      <path class="cls-1" d="m29.3,28.19h9.17v1.78h-7.16v3.59h6.92v1.78h-6.92v3.9h7.31v1.78h-9.32v-12.82Z"/>
      <path class="cls-1" d="m57.72,37.14h1.96c.33,1.46,1.43,2.51,3.31,2.51s2.89-.97,2.89-2.31c0-1.03-.68-1.7-2.01-1.96l-2.77-.57c-1.98-.42-3.02-1.43-3.02-3.26,0-2.12,1.9-3.63,4.71-3.63s4.47,1.46,4.72,3.83h-1.94c-.26-1.3-1.21-2.22-2.82-2.22s-2.71.7-2.71,1.9c0,.92.44,1.39,1.65,1.63l2.86.57c2.14.42,3.3,1.61,3.3,3.53,0,2.42-2.07,4.08-4.87,4.08-2.97,0-4.85-1.65-5.25-4.12Z"/>
      <path class="cls-1" d="m90.46,29.96h-4.19v-1.78h10.42v1.78h-4.21v11.04h-2.01v-11.04Z"/>
      <path class="cls-1" d="m116.05,28.19h2.01v12.82h-2.01v-12.82Z"/>
      <path class="cls-1" d="m137.17,28.19h2.07l3.79,10.31,3.77-10.31h2.07l-4.83,12.82h-2.03l-4.83-12.82Z"/>
      <path class="cls-1" d="m170.29,28.19h2.14l5.11,12.82h-2.11l-1.15-3.09h-5.84l-1.15,3.09h-2.09l5.09-12.82Zm3.35,7.95l-2.27-6.01-2.27,6.01h4.54Z"/>
    </g>
  </g>
</svg>