<?xml version="1.0" encoding="UTF-8"?>
<svg id="Calque_2" data-name="Calque 2" xmlns="http://www.w3.org/2000/svg" viewBox="0 0 85.68 50.55">
  <defs>
    <style>
      .cls-1 {
        fill: #e4e4e4;
      }

      .cls-2 {
        fill: #ded753;
      }
    </style>
  </defs>
  <g id="Maquette">
    <g>
      <path class="cls-1" d="m0,26.67v-5.4h2.8v4.87h1.62v-10.5h-2.38l-2.04-2V2.04L2.04,0h3.14l2.04,2.04v5.4h-2.8V2.57h-1.62v10.5h2.38l2.04,1.96v11.64l-2.04,2.04h-3.14l-2.04-2.04Z"/>
      <path class="cls-1" d="m11.11,2.57h-2.23V0h7.25v2.57h-2.23v26.14h-2.8V2.57Z"/>
      <path class="cls-1" d="m22.22,15.64h-1.62v13.07h-2.8V0h5.18l2.04,2.04v10.99l-1.32,1.28,1.32,1.32v13.07h-2.8v-13.07Zm-1.62-13.07v10.5h1.62V2.57h-1.62Z"/>
      <path class="cls-1" d="m27.05,0h6.2v2.57h-3.4v10.5h2.04v2.57h-2.04v10.5h3.4v2.57h-6.2V0Z"/>
      <path class="cls-1" d="m35.02,0h6.2v2.57h-3.4v10.5h2.04v2.57h-2.04v10.5h3.4v2.57h-6.2V0Z"/>
      <path class="cls-1" d="m44.85,2.57h-2.23V0h7.25v2.57h-2.23v26.14h-2.8V2.57Z"/>
      <path class="cls-1" d="m55.65,26.67v-8.65h2.8v8.12h1.62V0h2.8v26.67l-2.08,2.04h-3.06l-2.08-2.04Z"/>
      <path class="cls-1" d="m69.63,23.27h-2l-.42,5.44h-2.8l2.61-28.71h3.21l2.61,28.71h-2.8l-.42-5.44Zm-1.02-13.03l-.79,10.47h1.62l-.79-10.47h-.04Z"/>
      <path class="cls-1" d="m82.82,8.16h-.08l-1.78,20.55h-1.93l-1.78-20.55h-.08v20.55h-2.8V0h4.38l1.17,13.68h.08l1.21-13.68h4.38v28.71h-2.8V8.16Z"/>
    </g>
    <g>
      <path class="cls-2" d="m.3,33.98h3.58v1.48h-1.96v6.06h1.18v1.48h-1.18v7.54H.3v-16.57Z"/>
      <path class="cls-2" d="m11.79,33.98h3.58v1.48h-1.96v6.06h1.18v1.48h-1.18v6.06h1.96v1.48h-3.58v-16.57Z"/>
      <path class="cls-2" d="m23.34,49.38v-3.12h1.61v2.81h.94v-6.06h-1.37l-1.18-1.16v-6.69l1.18-1.18h1.81l1.18,1.18v3.12h-1.61v-2.81h-.94v6.06h1.37l1.18,1.13v6.72l-1.18,1.18h-1.81l-1.18-1.18Z"/>
      <path class="cls-2" d="m36.7,35.47h-1.29v-1.48h4.19v1.48h-1.29v15.09h-1.61v-15.09Z"/>
      <path class="cls-2" d="m47.51,33.98h1.61v16.57h-1.61v-16.57Z"/>
      <path class="cls-2" d="m57,33.98h1.59l.81,10.2h.02l.81-10.2h1.59l-1.48,16.57h-1.85l-1.48-16.57Z"/>
      <path class="cls-2" d="m72.41,47.41h-1.16l-.24,3.14h-1.61l1.5-16.57h1.85l1.5,16.57h-1.61l-.24-3.14Zm-.59-7.52l-.46,6.04h.94l-.46-6.04h-.02Z"/>
      <path class="cls-2" d="m82.11,33.98h1.61v15.09h1.96v1.48h-3.58v-16.57Z"/>
    </g>
  </g>
</svg>