<?xml version="1.0" encoding="UTF-8"?>
<svg id="Calque_2" data-name="Calque 2" xmlns="http://www.w3.org/2000/svg" viewBox="0 0 17.16 17.16">
  <defs>
    <style>
      .cls-1 {
        fill: #fff;
      }

      .cls-2 {
        fill: #c95d34;
      }
    </style>
  </defs>
  <g id="Maquette">
    <g>
      <circle class="cls-1" cx="8.58" cy="8.58" r="8.58"/>
      <path class="cls-2" d="m13.87,5.51l-1.05.91c0,.29-.06.56-.16.82,0,0,0,0,0,0-1.72,8.3-9.36,5.05-9.36,5.05,2.35.15,3.27-1.36,3.27-1.36-2.22-.49-2.11-1.25-2.11-1.25l.88.11c-.77-.41-1.81-2.24-1.81-2.24l1.36.07c-1.89-1.14-1.12-2.89-1.12-2.89,1.63,2.73,4.53,2.34,4.77,2.32-.06-.2-.09-.41-.09-.63,0-1.21.98-2.19,2.19-2.19.45,0,.88.14,1.22.37.11.07.22.16.31.25l1.16-.54-.37,1,.91.18Z"/>
    </g>
  </g>
</svg>